<mxfile host="app.diagrams.net" agent="Mozilla/5.0 (Windows NT 10.0; Win64; x64; rv:135.0) Gecko/20100101 Firefox/135.0" version="26.0.16">
  <diagram id="Ht1M8jgEwFfnCIfOTk4-" name="Page-1">
    <mxGraphModel dx="2074" dy="1933" grid="1" gridSize="10" guides="1" tooltips="1" connect="1" arrows="1" fold="1" page="1" pageScale="1" pageWidth="1169" pageHeight="827" math="0" shadow="0">
      <root>
        <mxCell id="0" />
        <mxCell id="1" parent="0" />
        <mxCell id="a8aOU-3chDSxk2MzRnCv-45" value="" style="rounded=0;whiteSpace=wrap;html=1;" vertex="1" parent="1">
          <mxGeometry x="200" y="-750" width="930" height="650" as="geometry" />
        </mxCell>
        <mxCell id="a8aOU-3chDSxk2MzRnCv-4" value="ASYNC QUEUES" style="shape=process;whiteSpace=wrap;html=1;backgroundOutline=1;fillColor=#bac8d3;strokeColor=#23445d;" vertex="1" parent="1">
          <mxGeometry x="430" y="-260" width="270" height="60" as="geometry" />
        </mxCell>
        <mxCell id="a8aOU-3chDSxk2MzRnCv-6" value="AUDITING" style="rounded=1;whiteSpace=wrap;html=1;" vertex="1" parent="1">
          <mxGeometry x="505.5" y="-180" width="67" height="60" as="geometry" />
        </mxCell>
        <mxCell id="a8aOU-3chDSxk2MzRnCv-7" value="DMS" style="rounded=1;whiteSpace=wrap;html=1;" vertex="1" parent="1">
          <mxGeometry x="580" y="-180" width="70" height="60" as="geometry" />
        </mxCell>
        <mxCell id="a8aOU-3chDSxk2MzRnCv-8" value="API1" style="whiteSpace=wrap;html=1;aspect=fixed;fillColor=#dae8fc;strokeColor=#6c8ebf;" vertex="1" parent="1">
          <mxGeometry x="435.5" y="-720" width="70" height="70" as="geometry" />
        </mxCell>
        <mxCell id="a8aOU-3chDSxk2MzRnCv-9" value="&lt;div&gt;API2&lt;/div&gt;&lt;div&gt;&lt;br&gt;&lt;/div&gt;" style="whiteSpace=wrap;html=1;aspect=fixed;fillColor=#dae8fc;strokeColor=#6c8ebf;" vertex="1" parent="1">
          <mxGeometry x="435.5" y="-640" width="70" height="70" as="geometry" />
        </mxCell>
        <mxCell id="a8aOU-3chDSxk2MzRnCv-10" value="&lt;div&gt;API3&lt;/div&gt;" style="whiteSpace=wrap;html=1;aspect=fixed;fillColor=#dae8fc;strokeColor=#6c8ebf;" vertex="1" parent="1">
          <mxGeometry x="435.5" y="-560" width="70" height="70" as="geometry" />
        </mxCell>
        <mxCell id="a8aOU-3chDSxk2MzRnCv-11" value="&lt;div&gt;VENDOR ADAPTER&lt;/div&gt;&amp;nbsp;API" style="rounded=0;whiteSpace=wrap;html=1;fillColor=#fff2cc;strokeColor=#d6b656;" vertex="1" parent="1">
          <mxGeometry x="720" y="-260" width="240" height="60" as="geometry" />
        </mxCell>
        <mxCell id="a8aOU-3chDSxk2MzRnCv-12" value="&lt;b&gt;APIM&lt;/b&gt;&lt;br&gt;&lt;br&gt;&lt;br&gt;(SEC&lt;br&gt;CACHING)" style="rounded=0;whiteSpace=wrap;html=1;" vertex="1" parent="1">
          <mxGeometry x="320" y="-720" width="60" height="300" as="geometry" />
        </mxCell>
        <mxCell id="a8aOU-3chDSxk2MzRnCv-13" value="DB1" style="shape=cylinder3;whiteSpace=wrap;html=1;boundedLbl=1;backgroundOutline=1;size=15;fillColor=#d5e8d4;strokeColor=#82b366;" vertex="1" parent="1">
          <mxGeometry x="605" y="-720" width="60" height="100" as="geometry" />
        </mxCell>
        <mxCell id="a8aOU-3chDSxk2MzRnCv-14" value="DB N" style="shape=cylinder3;whiteSpace=wrap;html=1;boundedLbl=1;backgroundOutline=1;size=15;fillColor=#d5e8d4;strokeColor=#82b366;" vertex="1" parent="1">
          <mxGeometry x="605" y="-502.5" width="60" height="95" as="geometry" />
        </mxCell>
        <mxCell id="a8aOU-3chDSxk2MzRnCv-15" value="VENDOR 1&lt;br&gt;API" style="whiteSpace=wrap;html=1;fillColor=#fff2cc;strokeColor=#d6b656;" vertex="1" parent="1">
          <mxGeometry x="720" y="-70" width="120" height="60" as="geometry" />
        </mxCell>
        <mxCell id="a8aOU-3chDSxk2MzRnCv-16" value="VENDOR&amp;nbsp; N&lt;br&gt;API" style="whiteSpace=wrap;html=1;fillColor=#fff2cc;strokeColor=#d6b656;" vertex="1" parent="1">
          <mxGeometry x="846" y="-70" width="120" height="60" as="geometry" />
        </mxCell>
        <mxCell id="a8aOU-3chDSxk2MzRnCv-18" value="LOGGING" style="rounded=1;whiteSpace=wrap;html=1;" vertex="1" parent="1">
          <mxGeometry x="430" y="-180" width="67" height="60" as="geometry" />
        </mxCell>
        <mxCell id="a8aOU-3chDSxk2MzRnCv-19" value="DWH" style="rounded=1;whiteSpace=wrap;html=1;fillColor=#d0cee2;strokeColor=#56517e;" vertex="1" parent="1">
          <mxGeometry x="766" y="-622.5" width="80" height="120" as="geometry" />
        </mxCell>
        <mxCell id="a8aOU-3chDSxk2MzRnCv-22" value="IAM" style="rounded=0;whiteSpace=wrap;html=1;" vertex="1" parent="1">
          <mxGeometry x="320" y="-400" width="60" height="40" as="geometry" />
        </mxCell>
        <mxCell id="a8aOU-3chDSxk2MzRnCv-23" value="LDAP" style="rounded=0;whiteSpace=wrap;html=1;" vertex="1" parent="1">
          <mxGeometry x="320" y="-350" width="60" height="40" as="geometry" />
        </mxCell>
        <mxCell id="a8aOU-3chDSxk2MzRnCv-24" value="MOBILE APP" style="rounded=1;whiteSpace=wrap;html=1;fillColor=#ffe6cc;strokeColor=#d79b00;" vertex="1" parent="1">
          <mxGeometry x="60" y="-735" width="90" height="60" as="geometry" />
        </mxCell>
        <mxCell id="a8aOU-3chDSxk2MzRnCv-25" value="WEB&lt;br&gt;&lt;div&gt;APP 2&lt;/div&gt;" style="rounded=1;whiteSpace=wrap;html=1;fillColor=#ffe6cc;strokeColor=#d79b00;" vertex="1" parent="1">
          <mxGeometry x="250" y="-490" width="50" height="70" as="geometry" />
        </mxCell>
        <mxCell id="a8aOU-3chDSxk2MzRnCv-26" value="RESTCLIENT&lt;br&gt;B2B" style="rounded=1;whiteSpace=wrap;html=1;fillColor=#ffe6cc;strokeColor=#d79b00;" vertex="1" parent="1">
          <mxGeometry x="60" y="-665" width="90" height="60" as="geometry" />
        </mxCell>
        <mxCell id="a8aOU-3chDSxk2MzRnCv-27" value="WEB&lt;br&gt;APP" style="rounded=1;whiteSpace=wrap;html=1;fillColor=#ffe6cc;strokeColor=#d79b00;" vertex="1" parent="1">
          <mxGeometry x="250" y="-575" width="50" height="70" as="geometry" />
        </mxCell>
        <mxCell id="a8aOU-3chDSxk2MzRnCv-28" value="&lt;div&gt;APIN&lt;/div&gt;" style="whiteSpace=wrap;html=1;aspect=fixed;fillColor=#dae8fc;strokeColor=#6c8ebf;" vertex="1" parent="1">
          <mxGeometry x="435.5" y="-480" width="70" height="70" as="geometry" />
        </mxCell>
        <mxCell id="a8aOU-3chDSxk2MzRnCv-29" value="&lt;div&gt;DB 2&lt;/div&gt;&lt;div&gt;&lt;br&gt;&lt;/div&gt;" style="shape=cylinder3;whiteSpace=wrap;html=1;boundedLbl=1;backgroundOutline=1;size=15;fillColor=#d5e8d4;strokeColor=#82b366;" vertex="1" parent="1">
          <mxGeometry x="605" y="-610" width="60" height="95" as="geometry" />
        </mxCell>
        <mxCell id="a8aOU-3chDSxk2MzRnCv-30" value="ETL" style="html=1;shadow=0;dashed=0;align=center;verticalAlign=middle;shape=mxgraph.arrows2.arrow;dy=0.6;dx=40;notch=0;" vertex="1" parent="1">
          <mxGeometry x="690" y="-597" width="60" height="70" as="geometry" />
        </mxCell>
        <mxCell id="a8aOU-3chDSxk2MzRnCv-31" value="REPORTING" style="rounded=1;whiteSpace=wrap;html=1;fillColor=#b1ddf0;strokeColor=#10739e;" vertex="1" parent="1">
          <mxGeometry x="920" y="-622.5" width="120" height="40" as="geometry" />
        </mxCell>
        <mxCell id="a8aOU-3chDSxk2MzRnCv-32" value="COMPLAINCE" style="rounded=1;whiteSpace=wrap;html=1;fillColor=#b1ddf0;strokeColor=#10739e;" vertex="1" parent="1">
          <mxGeometry x="920" y="-577.5" width="120" height="40" as="geometry" />
        </mxCell>
        <mxCell id="a8aOU-3chDSxk2MzRnCv-33" value="&lt;div&gt;AI&lt;/div&gt;&lt;div&gt;&lt;br&gt;&lt;/div&gt;" style="rounded=1;whiteSpace=wrap;html=1;fillColor=#b1ddf0;strokeColor=#10739e;" vertex="1" parent="1">
          <mxGeometry x="920" y="-529.5" width="120" height="40" as="geometry" />
        </mxCell>
        <mxCell id="a8aOU-3chDSxk2MzRnCv-34" value="&lt;div&gt;BI&lt;/div&gt;&lt;div&gt;&lt;br&gt;&lt;/div&gt;" style="rounded=1;whiteSpace=wrap;html=1;fillColor=#b1ddf0;strokeColor=#10739e;" vertex="1" parent="1">
          <mxGeometry x="920" y="-482.5" width="120" height="40" as="geometry" />
        </mxCell>
        <mxCell id="a8aOU-3chDSxk2MzRnCv-35" value="" style="html=1;shadow=0;dashed=0;align=center;verticalAlign=middle;shape=mxgraph.arrows2.arrow;dy=0.6;dx=40;notch=0;" vertex="1" parent="1">
          <mxGeometry x="850" y="-597" width="60" height="70" as="geometry" />
        </mxCell>
        <mxCell id="a8aOU-3chDSxk2MzRnCv-36" value="&lt;div&gt;&lt;br&gt;&lt;/div&gt;&lt;div&gt;&lt;br&gt;&lt;/div&gt;" style="html=1;shadow=0;dashed=0;align=center;verticalAlign=middle;shape=mxgraph.arrows2.arrow;dy=0.6;dx=40;notch=0;" vertex="1" parent="1">
          <mxGeometry x="530" y="-597" width="60" height="70" as="geometry" />
        </mxCell>
        <mxCell id="a8aOU-3chDSxk2MzRnCv-37" value="&lt;div&gt;&lt;br&gt;&lt;/div&gt;&lt;div&gt;&lt;br&gt;&lt;/div&gt;" style="html=1;shadow=0;dashed=0;align=center;verticalAlign=middle;shape=mxgraph.arrows2.arrow;dy=0.6;dx=40;notch=0;" vertex="1" parent="1">
          <mxGeometry x="385.5" y="-597" width="50" height="70" as="geometry" />
        </mxCell>
        <mxCell id="a8aOU-3chDSxk2MzRnCv-38" value="&lt;div&gt;&lt;br&gt;&lt;/div&gt;&lt;div&gt;&lt;br&gt;&lt;/div&gt;" style="html=1;shadow=0;dashed=0;align=center;verticalAlign=middle;shape=mxgraph.arrows2.arrow;dy=0.6;dx=40;notch=0;" vertex="1" parent="1">
          <mxGeometry x="160" y="-715" width="50" height="70" as="geometry" />
        </mxCell>
        <mxCell id="a8aOU-3chDSxk2MzRnCv-39" value="" style="html=1;shadow=0;dashed=0;align=center;verticalAlign=middle;shape=mxgraph.arrows2.arrow;dy=0.6;dx=40;direction=south;notch=0;" vertex="1" parent="1">
          <mxGeometry x="436" y="-380" width="70" height="100" as="geometry" />
        </mxCell>
        <mxCell id="a8aOU-3chDSxk2MzRnCv-41" value="" style="shape=flexArrow;endArrow=classic;startArrow=classic;html=1;rounded=0;" edge="1" parent="1">
          <mxGeometry width="100" height="100" relative="1" as="geometry">
            <mxPoint x="530" y="-410" as="sourcePoint" />
            <mxPoint x="830" y="-280" as="targetPoint" />
          </mxGeometry>
        </mxCell>
        <mxCell id="a8aOU-3chDSxk2MzRnCv-42" value="" style="html=1;shadow=0;dashed=0;align=center;verticalAlign=middle;shape=mxgraph.arrows2.twoWayArrow;dy=0.6;dx=35;rotation=90;" vertex="1" parent="1">
          <mxGeometry x="793.21" y="-157.43" width="102.82" height="50.79" as="geometry" />
        </mxCell>
        <mxCell id="a8aOU-3chDSxk2MzRnCv-47" value="TransAm architecture diagram" style="text;html=1;align=center;verticalAlign=middle;whiteSpace=wrap;rounded=0;fontSize=24;" vertex="1" parent="1">
          <mxGeometry x="400" y="-800" width="480" height="30" as="geometry" />
        </mxCell>
      </root>
    </mxGraphModel>
  </diagram>
</mxfile>
